<?xml version="1.0" encoding="UTF-8"?>
<svg width="23px" height="22px" viewBox="0 0 23 22" version="1.1" xmlns="http://www.w3.org/2000/svg" xmlns:xlink="http://www.w3.org/1999/xlink">
    <title>icon-xuzhi</title>
    <g id="页面-1" stroke="none" stroke-width="1" fill="none" fill-rule="evenodd">
        <g id="试卷6.27" transform="translate(-1318.000000, -118.000000)" fill="#517DF0" fill-rule="nonzero">
            <g id="icon-xuzhi" transform="translate(1318.000000, 118.000000)">
                <path d="M14.0967742,21.7792667 L14.0967742,20.2678667 C18.3488065,19.2734667 21.516129,15.5070667 21.516129,11 C21.516129,6.49366667 18.3488065,2.72726666 14.0967742,1.73213334 L14.0967742,0.733333335 L14.0967742,0.221466677 C19.1760645,1.2408 23,5.67893334 23,11 C23,16.3218 19.1760645,20.7599333 14.0967742,21.7792667 Z M1.48387097,15.4 C0.664032261,15.4 0,14.7436667 0,13.9333333 L0,8.06666666 C0,7.25706666 0.664032261,6.59999999 1.48387097,6.59999999 L5.1935484,6.59999999 L11.8709677,0 L11.8709677,22 L5.1935484,15.4 L1.48387097,15.4 Z M10.3870968,18.3340667 L10.3870968,3.66740001 L5.93548386,8.06739999 L1.48387097,8.06739999 L1.48387097,13.9340667 L5.93548386,13.9340667 L10.3870968,18.3340667 Z M17.8064516,10.6333333 C17.8064516,13.1604 16.2825161,15.3303333 14.0967742,16.3093333 L14.0967742,14.6395333 C15.4322581,13.7918 16.3225806,12.3192667 16.3225806,10.6333333 C16.3225806,8.94813334 15.4322581,7.47560001 14.0967742,6.62786668 L14.0967742,4.95806667 C16.2825161,5.93706667 17.8064516,8.10699999 17.8064516,10.6333333 Z" id="形状"></path>
            </g>
        </g>
    </g>
</svg>