<?xml version="1.0" encoding="UTF-8"?>
<svg width="62px" height="62px" viewBox="0 0 62 62" version="1.1" xmlns="http://www.w3.org/2000/svg" xmlns:xlink="http://www.w3.org/1999/xlink">
    <title>icon-qianzhi</title>
    <defs>
        <linearGradient x1="100%" y1="100%" x2="5.59553249%" y2="0%" id="linearGradient-1">
            <stop stop-color="#3586F9" offset="0%"></stop>
            <stop stop-color="#8DCEFF" offset="100%"></stop>
        </linearGradient>
    </defs>
    <g id="页面-1" stroke="none" stroke-width="1" fill="none" fill-rule="evenodd">
        <g id="首页备份-3" transform="translate(-855.000000, -1146.000000)">
            <g id="icon-qianzhi" transform="translate(855.000000, 1146.000000)">
                <path d="M19.0796898,9.07968978 L42.9203102,9.07968978 C48.4431577,9.07968978 52.9203102,13.5568423 52.9203102,19.0796898 L52.9203102,42.9203102 C52.9203102,48.4431577 48.4431577,52.9203102 42.9203102,52.9203102 L19.0796898,52.9203102 C13.5568423,52.9203102 9.07968978,48.4431577 9.07968978,42.9203102 L9.07968978,19.0796898 C9.07968978,13.5568423 13.5568423,9.07968978 19.0796898,9.07968978 Z" id="矩形" fill="url(#linearGradient-1)" transform="translate(31.000000, 31.000000) rotate(45.000000) translate(-31.000000, -31.000000) "></path>
                <g id="营销" transform="translate(20.079690, 21.079690)" fill="#FFFFFF" fill-rule="nonzero">
                    <path d="M7.42212358,7.7759509 C6.660925,7.7759509 6.04385162,8.3991296 6.04385162,9.16785949 C6.04385162,9.93658938 6.660925,10.5597681 7.42212358,10.5597681 C8.18332216,10.5597681 8.80039553,9.93658938 8.80039553,9.16785949 C8.80039553,8.3991296 8.18332216,7.7759509 7.42212358,7.7759509 L7.42212358,7.7759509 Z M19.7470555,0 L2.1210776,0 C1.54698397,0.00698040654 0.999576916,0.245888822 0.601141405,0.663355622 C0.202705893,1.08082242 -0.0135585719,1.64206233 0.000659215273,2.22170026 L0.000659215273,14.4410517 C-0.0135585719,15.0206896 0.202705893,15.5819295 0.601141405,15.9993963 C0.999576916,16.4168631 1.54698397,16.6557715 2.1210776,16.6627519 L7.68717587,16.6627519 L5.83180978,18.0011256 C5.39473568,18.4051602 5.33712778,19.0800235 5.69928364,19.553639 C5.85630306,19.7875231 6.1025852,19.9449028 6.37910643,19.9880607 C6.65562766,20.0312186 6.93746411,19.9562648 7.15707128,19.7811625 L11.0003296,16.9438104 L14.7110618,19.7811625 C14.930669,19.9562648 15.2125054,20.0312186 15.4890266,19.9880607 C15.7655479,19.9449028 16.01183,19.7875231 16.1688494,19.553639 C16.5310053,19.0800235 16.4733974,18.4051602 16.0363233,18.0011256 L14.1809572,16.6627519 L19.7470555,16.6627519 C20.968067,16.6560675 21.9643153,15.6736354 22,14.4410517 L22,2.22170026 C21.9643153,0.989116572 20.968067,0.00668445661 19.7470555,0 Z M7.42212358,12.2193514 C6.19127346,12.2629931 5.05737273,11.5478276 4.55610048,10.4117145 C4.05482823,9.27560142 4.28651434,7.94593432 5.14170531,7.05087655 C5.99689627,6.15581877 7.30442522,5.87451656 8.44658735,6.33986312 C9.58874948,6.80520968 10.3369405,7.92406569 10.3377354,9.16785949 C10.3456592,10.8150349 9.05240581,12.1685765 7.42212358,12.2193514 L7.42212358,12.2193514 Z M14.1809572,11.1085013 C14.1997047,11.401484 14.0954214,11.6888962 13.8936707,11.9002835 C13.6919201,12.1116708 13.4113537,12.2274906 13.120748,12.2193514 C12.5318184,12.1910321 12.0668906,11.703897 12.0605388,11.1085013 L12.0605388,8.32468409 C12.0668906,7.72928837 12.5318184,7.24215324 13.120748,7.21383397 C13.4113537,7.20569482 13.6919201,7.32151455 13.8936707,7.53290184 C14.0954214,7.74428914 14.1997047,8.03170136 14.1809572,8.32468409 L14.1809572,11.1085013 Z M17.4941109,11.1085013 C17.4941109,11.699832 17.0194391,12.1792002 16.4339017,12.1792002 C15.8483644,12.1792002 15.3736925,11.699832 15.3736925,11.1085013 L15.3736925,5.55425064 C15.3736925,4.96291996 15.8483644,4.48355172 16.4339017,4.48355172 C17.0194391,4.48355172 17.4941109,4.96291996 17.4941109,5.55425064 L17.4941109,11.1085013 Z" id="形状"></path>
                </g>
            </g>
        </g>
    </g>
</svg>